<svg width="800" height="800" viewBox="0 0 64 64" xmlns="http://www.w3.org/2000/svg"><path d="M32 3a29 29 0 1 0 29 29A29 29 0 0 0 32 3Zm0 56a27 27 0 1 1 27-27 27 27 0 0 1-27 27Zm15-26H17a1 1 0 0 0-1 1c0 9.93 7.18 18 16 18s16-8.07 16-18a1 1 0 0 0-1-1Zm-29 2h28a18 18 0 0 1-.67 4H18.71a18 18 0 0 1-.71-4Zm8.65 13.8a6.44 6.44 0 0 1 10.62 0 12.35 12.35 0 0 1-10.62 0Zm12.35-1a8.81 8.81 0 0 0-7-3.8 8.81 8.81 0 0 0-7 3.81A15.56 15.56 0 0 1 19.43 41h25.14A15.56 15.56 0 0 1 39 47.81Zm-2.89-21.25 5-10a.28.28 0 0 1 .07-.09.71.71 0 0 1 .28-.28.28.28 0 0 1 .09-.07s.05 0 .07 0a1.17 1.17 0 0 1 .2-.06L42 16h.18a1.17 1.17 0 0 1 .2.06s0 0 .07 0 .06.05.09.07a.71.71 0 0 1 .28.28.28.28 0 0 1 .07.09l5 10a1 1 0 0 1-.44 1.34.93.93 0 0 1-.45.16 1 1 0 0 1-.89-.55L42 19.24l-4.11 8.21A1 1 0 0 1 37 28a.93.93 0 0 1-.45-.11 1 1 0 0 1-.44-1.34Zm-20 0 5-10a.28.28 0 0 1 .07-.09.71.71 0 0 1 .28-.28s.06-.06.09-.07.05 0 .07 0a1.17 1.17 0 0 1 .2-.06L22 16h.18a1.17 1.17 0 0 1 .2.06s.05 0 .07 0 .06.05.09.07a.71.71 0 0 1 .28.28.28.28 0 0 1 .07.09l5 10a1 1 0 0 1-.44 1.34.93.93 0 0 1-.45.16 1 1 0 0 1-.89-.55L22 19.24l-4.11 8.21A1 1 0 0 1 17 28a.93.93 0 0 1-.45-.11 1 1 0 0 1-.44-1.34Z" data-name="Layer 13"/></svg>