<svg width="800" height="800" viewBox="0 0 64 64" xmlns="http://www.w3.org/2000/svg"><path d="M32 3a29 29 0 1 0 29 29A29 29 0 0 0 32 3Zm0 56a27 27 0 1 1 27-27 27 27 0 0 1-27 27Zm7.71-20.71a1 1 0 0 1 0 1.42C37.6 41.81 36.21 43 32 43s-5.6-1.19-7.71-3.29a1 1 0 0 1 1.42-1.42C27.51 40.1 28.41 41 32 41s4.49-.9 6.29-2.71a1 1 0 0 1 1.42 0Zm6-20.27 1.76-.88a1 1 0 1 0-.9-1.78l-3.38 1.69h-.09l-6.25 3.13a.86.86 0 0 0-.26.2l-.08.09a.94.94 0 0 0-.12.22v.06a.43.43 0 0 1 0 .05 6.2 6.2 0 0 0-.31 1.9 6 6 0 1 0 9.61-4.7ZM42 26.75a4 4 0 0 1-4-4 4 4 0 0 1 .13-.95l5.44-2.72A4 4 0 0 1 42 26.75Zm-14-4a6.13 6.13 0 0 0-.31-1.89.89.89 0 0 0-.14-.25l-.06-.08a1 1 0 0 0-.26-.2l-6.25-3.13h-.09l-3.38-1.69a1 1 0 1 0-.9 1.78l1.76.88A6 6 0 1 0 28 22.75Zm-6 4a4 4 0 0 1-1.57-7.67l5.44 2.72a4 4 0 0 1 .13.95 4 4 0 0 1-4 4Z" data-name="Layer 37"/></svg>