<svg xmlns="http://www.w3.org/2000/svg">
      
<symbol viewBox="0 -0.5 21 21" id="home">
  <title>home [#1391]</title>
  <desc>Created with Sketch.</desc>
  <defs></defs>
  <g id="Page-1" stroke="none">
    <g
      id="Dribbble-Light-Preview"
      transform="translate(-419.000000, -720.000000)"

    >
      <g id="icons" transform="translate(56.000000, 160.000000)">
        <path
          d="M379.79996,578 L376.649968,578 L376.649968,574 L370.349983,574 L370.349983,578 L367.19999,578 L367.19999,568.813 L373.489475,562.823 L379.79996,568.832 L379.79996,578 Z M381.899955,568.004 L381.899955,568 L381.899955,568 L373.502075,560 L363,569.992 L364.481546,571.406 L365.099995,570.813 L365.099995,580 L372.449978,580 L372.449978,576 L374.549973,576 L374.549973,580 L381.899955,580 L381.899955,579.997 L381.899955,570.832 L382.514204,571.416 L384.001,570.002 L381.899955,568.004 Z"

        ></path>
      </g>
    </g>
  </g>
</symbol>


<symbol viewBox="0 0 20 20" id="gallary">

  <g id="Page-1" stroke="none" stroke-width="1" >
    <g
      id="Dribbble-Light-Preview"
      transform="translate(-260.000000, -3919.000000)"
    >
      <g id="icons" transform="translate(56.000000, 160.000000)">
        <path
          d="M218,3765.5 C218,3764.948 217.552,3765 217,3765 L207,3765 C206.448,3765 206,3764.948 206,3765.5 L206,3775 L218,3775 L218,3765.5 Z M220,3765 L220,3777 C220,3778.104 219.105,3779 218,3779 L206,3779 C204.896,3779 204,3778.104 204,3777 L204,3765 C204,3763.895 204.896,3763 206,3763 L218,3763 C219.105,3763 220,3763.895 220,3765 L220,3765 Z M224,3761.063 L224,3773.5 C224,3774.052 223.552,3774.5 223,3774.5 C222.448,3774.5 222,3774.052 222,3773.5 L222,3761.5 C222,3760.948 221.552,3761 221,3761 L209,3761 C208.448,3761 208,3760.474 208,3759.922 C208,3759.37 208.448,3759 209,3759 L222,3759 C223.219,3759 224,3759.813 224,3761.063 L224,3761.063 Z"
          id="images_round-[#965]"
        ></path>
      </g>
    </g>
  </g>
</symbol>


<symbol viewBox="0 0 24 24" id="down">
  <path

    d="M12 3C12.5523 3 13 3.44772 13 4V17.5858L18.2929 12.2929C18.6834 11.9024 19.3166 11.9024 19.7071 12.2929C20.0976 12.6834 20.0976 13.3166 19.7071 13.7071L12.7071 20.7071C12.3166 21.0976 11.6834 21.0976 11.2929 20.7071L4.29289 13.7071C3.90237 13.3166 3.90237 12.6834 4.29289 12.2929C4.68342 11.9024 5.31658 11.9024 5.70711 12.2929L11 17.5858V4C11 3.44772 11.4477 3 12 3Z"

  />
</symbol>


<symbol viewBox="0 -6.5 38 38" id="left">
  <g id="icons" stroke="none" stroke-width="1">
    <g
      id="ui-gambling-website-lined-icnos-casinoshunter"
      transform="translate(-1641.000000, -158.000000)"
    >
      <g id="1" transform="translate(1350.000000, 120.000000)">
        <path
          d="M317.812138,38.5802109 L328.325224,49.0042713 L328.41312,49.0858421 C328.764883,49.4346574 328.96954,49.8946897 329,50.4382227 L328.998248,50.6209428 C328.97273,51.0514917 328.80819,51.4628128 328.48394,51.8313977 L328.36126,51.9580208 L317.812138,62.4197891 C317.031988,63.1934036 315.770571,63.1934036 314.990421,62.4197891 C314.205605,61.6415481 314.205605,60.3762573 314.990358,59.5980789 L322.274264,52.3739093 L292.99947,52.3746291 C291.897068,52.3746291 291,51.4850764 291,50.3835318 C291,49.2819872 291.897068,48.3924345 292.999445,48.3924345 L322.039203,48.3917152 L314.990421,41.4019837 C314.205605,40.6237427 314.205605,39.3584519 314.990421,38.5802109 C315.770571,37.8065964 317.031988,37.8065964 317.812138,38.5802109 Z"
          id="left-arrow"
          transform="translate(310.000000, 50.500000) scale(-1, 1) translate(-310.000000, -50.500000) "
        ></path>
      </g>
    </g>
  </g>
</symbol>
    </svg>