<svg xmlns="http://www.w3.org/2000/svg">
      
<symbol viewBox="0 -0.5 21 21" id="home">
  <title>home [#1391]</title>
  <desc>Created with Sketch.</desc>
  <defs></defs>
  <g id="Page-1" stroke="none">
    <g
      id="Dribbble-Light-Preview"
      transform="translate(-419.000000, -720.000000)"

    >
      <g id="icons" transform="translate(56.000000, 160.000000)">
        <path
          d="M379.79996,578 L376.649968,578 L376.649968,574 L370.349983,574 L370.349983,578 L367.19999,578 L367.19999,568.813 L373.489475,562.823 L379.79996,568.832 L379.79996,578 Z M381.899955,568.004 L381.899955,568 L381.899955,568 L373.502075,560 L363,569.992 L364.481546,571.406 L365.099995,570.813 L365.099995,580 L372.449978,580 L372.449978,576 L374.549973,576 L374.549973,580 L381.899955,580 L381.899955,579.997 L381.899955,570.832 L382.514204,571.416 L384.001,570.002 L381.899955,568.004 Z"

        ></path>
      </g>
    </g>
  </g>
</symbol>


<symbol viewBox="0 0 20 20" id="gallary">

  <g id="Page-1" stroke="none" stroke-width="1" >
    <g
      id="Dribbble-Light-Preview"
      transform="translate(-260.000000, -3919.000000)"
    >
      <g id="icons" transform="translate(56.000000, 160.000000)">
        <path
          d="M218,3765.5 C218,3764.948 217.552,3765 217,3765 L207,3765 C206.448,3765 206,3764.948 206,3765.5 L206,3775 L218,3775 L218,3765.5 Z M220,3765 L220,3777 C220,3778.104 219.105,3779 218,3779 L206,3779 C204.896,3779 204,3778.104 204,3777 L204,3765 C204,3763.895 204.896,3763 206,3763 L218,3763 C219.105,3763 220,3763.895 220,3765 L220,3765 Z M224,3761.063 L224,3773.5 C224,3774.052 223.552,3774.5 223,3774.5 C222.448,3774.5 222,3774.052 222,3773.5 L222,3761.5 C222,3760.948 221.552,3761 221,3761 L209,3761 C208.448,3761 208,3760.474 208,3759.922 C208,3759.37 208.448,3759 209,3759 L222,3759 C223.219,3759 224,3759.813 224,3761.063 L224,3761.063 Z"
          id="images_round-[#965]"
        ></path>
      </g>
    </g>
  </g>
</symbol>


<symbol viewBox="0 0 24 24" id="down">
  <path

    d="M12 3C12.5523 3 13 3.44772 13 4V17.5858L18.2929 12.2929C18.6834 11.9024 19.3166 11.9024 19.7071 12.2929C20.0976 12.6834 20.0976 13.3166 19.7071 13.7071L12.7071 20.7071C12.3166 21.0976 11.6834 21.0976 11.2929 20.7071L4.29289 13.7071C3.90237 13.3166 3.90237 12.6834 4.29289 12.2929C4.68342 11.9024 5.31658 11.9024 5.70711 12.2929L11 17.5858V4C11 3.44772 11.4477 3 12 3Z"

  />
</symbol>


<symbol viewBox="0 -6.5 38 38" id="left">
  <g id="icons" stroke="none" stroke-width="1">
    <g
      id="ui-gambling-website-lined-icnos-casinoshunter"
      transform="translate(-1641.000000, -158.000000)"
    >
      <g id="1" transform="translate(1350.000000, 120.000000)">
        <path
          d="M317.812138,38.5802109 L328.325224,49.0042713 L328.41312,49.0858421 C328.764883,49.4346574 328.96954,49.8946897 329,50.4382227 L328.998248,50.6209428 C328.97273,51.0514917 328.80819,51.4628128 328.48394,51.8313977 L328.36126,51.9580208 L317.812138,62.4197891 C317.031988,63.1934036 315.770571,63.1934036 314.990421,62.4197891 C314.205605,61.6415481 314.205605,60.3762573 314.990358,59.5980789 L322.274264,52.3739093 L292.99947,52.3746291 C291.897068,52.3746291 291,51.4850764 291,50.3835318 C291,49.2819872 291.897068,48.3924345 292.999445,48.3924345 L322.039203,48.3917152 L314.990421,41.4019837 C314.205605,40.6237427 314.205605,39.3584519 314.990421,38.5802109 C315.770571,37.8065964 317.031988,37.8065964 317.812138,38.5802109 Z"
          id="left-arrow"
          transform="translate(310.000000, 50.500000) scale(-1, 1) translate(-310.000000, -50.500000) "
        ></path>
      </g>
    </g>
  </g>
</symbol>


<symbol viewBox="0 0 64 64" id="smile1">
  <path
    d="M32 3a29 29 0 1 0 29 29A29 29 0 0 0 32 3Zm0 56a27 27 0 1 1 27-27 27 27 0 0 1-27 27Zm15-26H17a1 1 0 0 0-1 1c0 9.93 7.18 18 16 18s16-8.07 16-18a1 1 0 0 0-1-1Zm-29 2h28a18 18 0 0 1-.67 4H18.71a18 18 0 0 1-.71-4Zm8.65 13.8a6.44 6.44 0 0 1 10.62 0 12.35 12.35 0 0 1-10.62 0Zm12.35-1a8.81 8.81 0 0 0-7-3.8 8.81 8.81 0 0 0-7 3.81A15.56 15.56 0 0 1 19.43 41h25.14A15.56 15.56 0 0 1 39 47.81Zm-2.89-21.25 5-10a.28.28 0 0 1 .07-.09.71.71 0 0 1 .28-.28.28.28 0 0 1 .09-.07s.05 0 .07 0a1.17 1.17 0 0 1 .2-.06L42 16h.18a1.17 1.17 0 0 1 .2.06s0 0 .07 0 .06.05.09.07a.71.71 0 0 1 .28.28.28.28 0 0 1 .07.09l5 10a1 1 0 0 1-.44 1.34.93.93 0 0 1-.45.16 1 1 0 0 1-.89-.55L42 19.24l-4.11 8.21A1 1 0 0 1 37 28a.93.93 0 0 1-.45-.11 1 1 0 0 1-.44-1.34Zm-20 0 5-10a.28.28 0 0 1 .07-.09.71.71 0 0 1 .28-.28s.06-.06.09-.07.05 0 .07 0a1.17 1.17 0 0 1 .2-.06L22 16h.18a1.17 1.17 0 0 1 .2.06s.05 0 .07 0 .06.05.09.07a.71.71 0 0 1 .28.28.28.28 0 0 1 .07.09l5 10a1 1 0 0 1-.44 1.34.93.93 0 0 1-.45.16 1 1 0 0 1-.89-.55L22 19.24l-4.11 8.21A1 1 0 0 1 17 28a.93.93 0 0 1-.45-.11 1 1 0 0 1-.44-1.34Z"
    data-name="Layer 13"
  />
</symbol>

<symbol viewBox="0 0 64 64" id="smile2">
  <path
    d="M47 33H17a1 1 0 0 0-1 1c0 9.93 7.18 18 16 18s16-8.07 16-18a1 1 0 0 0-1-1Zm-29 2h28a18 18 0 0 1-.67 4H18.71a18 18 0 0 1-.71-4Zm8.7 13.8a6.42 6.42 0 0 1 10.6 0 12.3 12.3 0 0 1-10.6 0Zm12.34-1A8.81 8.81 0 0 0 32 44a8.81 8.81 0 0 0-7 3.81A15.56 15.56 0 0 1 19.43 41h25.14A15.56 15.56 0 0 1 39 47.81ZM36 22a1.1 1.1 0 0 1 0-.18 1.17 1.17 0 0 1 .06-.2s0-.05 0-.07a.28.28 0 0 1 .07-.09.71.71 0 0 1 .28-.28s.06-.06.09-.07l10-5a1 1 0 1 1 .9 1.78L39.24 22l8.21 4.11a1 1 0 0 1 .44 1.34A1 1 0 0 1 47 28a.93.93 0 0 1-.45-.11l-10-5a1.18 1.18 0 0 1-.28-.22v-.06a.65.65 0 0 1-.1-.15s0-.05 0-.07a1.17 1.17 0 0 1-.06-.2A1.1 1.1 0 0 1 36 22Zm-19.45 4.11L24.76 22l-8.21-4.11a1 1 0 1 1 .9-1.78l10 5s.06.05.09.07a.71.71 0 0 1 .28.28.28.28 0 0 1 .07.09s0 .05 0 .07a1.17 1.17 0 0 1 .06.2.82.82 0 0 1 0 .36 1.17 1.17 0 0 1-.06.2s0 .05 0 .07a.65.65 0 0 1-.1.15.21.21 0 0 0 0 .06 1.18 1.18 0 0 1-.28.22l-10 5A.93.93 0 0 1 17 28a1 1 0 0 1-.89-.55 1 1 0 0 1 .44-1.34Zm44.11 10.34A29.69 29.69 0 0 0 61 32a29 29 0 0 0-58 0 29.69 29.69 0 0 0 .34 4.45 4.65 4.65 0 0 0 2.39 7.82 29 29 0 0 0 52.54 0 4.65 4.65 0 0 0 2.39-7.82ZM4.78 41.58a2.91 2.91 0 0 1-.24-.27 2.62 2.62 0 0 1-.54-1.6.61.61 0 0 1 0-.14 2.58 2.58 0 0 1 .77-1.73 4.38 4.38 0 0 1 .74-.55C7 36.38 10 34.9 12.69 33.67c-1.52 3.3-3.42 7.17-4.17 7.91a2.59 2.59 0 0 1-1.47.72 2.66 2.66 0 0 1-2.27-.72ZM32 59A27 27 0 0 1 7.92 44.18a4.56 4.56 0 0 0 2-1.18c1.48-1.49 5-9.36 5.66-10.92a1 1 0 0 0-1.32-1.32c-.78.34-3.14 1.39-5.49 2.53-1.29.63-2.58 1.29-3.6 1.88A25.58 25.58 0 0 1 5 32a27 27 0 0 1 54 0 25.58 25.58 0 0 1-.19 3.17c-2.88-1.66-7.88-3.88-9.09-4.41a1 1 0 0 0-1.32 1.32c.69 1.56 4.18 9.43 5.66 10.92a4.56 4.56 0 0 0 2 1.18A27 27 0 0 1 32 59Zm27.46-17.69a2.91 2.91 0 0 1-.24.27 2.66 2.66 0 0 1-2.22.72 2.59 2.59 0 0 1-1.47-.72c-.75-.74-2.65-4.61-4.17-7.91 1.65.76 3.44 1.61 4.91 2.37.91.47 1.7.9 2.26 1.25a4.38 4.38 0 0 1 .74.55 2.58 2.58 0 0 1 .73 1.73.61.61 0 0 1 0 .14 2.62 2.62 0 0 1-.54 1.6Z"
    data-name="Layer 5"
  />
</symbol>

<symbol viewBox="0 0 64 64" id="smile3">
  <path
    d="M32 61a29 29 0 1 1 29-29 29 29 0 0 1-29 29Zm0-56a27 27 0 1 0 27 27A27 27 0 0 0 32 5Zm10 23a6 6 0 1 1 6-6 6 6 0 0 1-6 6Zm0-10a4 4 0 1 0 4 4 4 4 0 0 0-4-4ZM22 28a6 6 0 1 1 6-6 6 6 0 0 1-6 6Zm0-10a4 4 0 1 0 4 4 4 4 0 0 0-4-4Zm10 4 7.71 17.71a1 1 0 0 0-1.42-1.42C36.49 40.1 35.59 41 32 41s-4.49-.9-6.29-2.71a1 1 0 0 0-1.42 1.42C26.4 41.81 27.79 43 32 43s5.6-1.19 7.71-3.29Z"
    data-name="Layer 8"
  />
</symbol>


<symbol viewBox="0 0 64 64" id="smile4">
  <path
    d="M22 28a6 6 0 1 0-6-6 6 6 0 0 0 6 6Zm0-10a4 4 0 1 1-4 4 4 4 0 0 1 4-4ZM32 3a29 29 0 1 0 29 29A29 29 0 0 0 32 3Zm0 56a27 27 0 1 1 27-27 27 27 0 0 1-27 27Zm16.75-24.67a1 1 0 0 1-.08 1.42l-.53.47C45.34 38.75 40.65 43 32 43s-13.34-4.25-16.14-6.78l-.53-.47a1 1 0 1 1 1.34-1.5l.53.49C19.79 37.08 24.12 41 32 41s12.21-3.92 14.8-6.26l.53-.49a1 1 0 0 1 1.42.08ZM36 22a1.1 1.1 0 0 1 0-.18 1.17 1.17 0 0 1 .06-.2s0-.05 0-.07 0-.06.07-.09a.71.71 0 0 1 .28-.28s.06-.06.09-.07l10-5a1 1 0 1 1 .9 1.78L39.24 22l8.21 4.11a1 1 0 0 1 .44 1.34A1 1 0 0 1 47 28a.93.93 0 0 1-.45-.11l-10-5a1.18 1.18 0 0 1-.28-.22v-.06a.65.65 0 0 1-.1-.15s0-.05 0-.07a1.17 1.17 0 0 1-.06-.2A1.1 1.1 0 0 1 36 22Z"
    data-name="Layer 7"
  />
</symbol>

<symbol viewBox="0 0 64 64" id="smile5">
  <path
    d="M32 3a29 29 0 1 0 29 29A29 29 0 0 0 32 3Zm0 56a27 27 0 1 1 27-27 27 27 0 0 1-27 27Zm7.71-20.71a1 1 0 0 1 0 1.42C37.6 41.81 36.21 43 32 43s-5.6-1.19-7.71-3.29a1 1 0 0 1 1.42-1.42C27.51 40.1 28.41 41 32 41s4.49-.9 6.29-2.71a1 1 0 0 1 1.42 0Zm6-20.27 1.76-.88a1 1 0 1 0-.9-1.78l-3.38 1.69h-.09l-6.25 3.13a.86.86 0 0 0-.26.2l-.08.09a.94.94 0 0 0-.12.22v.06a.43.43 0 0 1 0 .05 6.2 6.2 0 0 0-.31 1.9 6 6 0 1 0 9.61-4.7ZM42 26.75a4 4 0 0 1-4-4 4 4 0 0 1 .13-.95l5.44-2.72A4 4 0 0 1 42 26.75Zm-14-4a6.13 6.13 0 0 0-.31-1.89.89.89 0 0 0-.14-.25l-.06-.08a1 1 0 0 0-.26-.2l-6.25-3.13h-.09l-3.38-1.69a1 1 0 1 0-.9 1.78l1.76.88A6 6 0 1 0 28 22.75Zm-6 4a4 4 0 0 1-1.57-7.67l5.44 2.72a4 4 0 0 1 .13.95 4 4 0 0 1-4 4Z"
    data-name="Layer 37"
  />
</symbol>

<symbol viewBox="0 0 24 24" id="setting">
  <path
    d="m14.136 3.361.498-.05-.498.05Zm-.152-.82-.445.23.445-.23Zm.447 2.277.398-.303-.398.303Zm.929.384-.067-.495.067.495Zm1.238-.82.317.386-.317-.387Zm.687-.473.152.476-.152-.476Zm.702.035.199-.459-.199.46Zm.637.538-.353.354.353-.354Zm.894.894.353-.354-.353.354Zm.538.637.459-.199-.46.199Zm.035.702.476.152-.476-.152Zm-.472.687-.387-.317.387.317Zm-.822 1.239-.495-.067.495.067Zm.385.928-.303.397.303-.397Zm1.457.295.05-.498-.05.498Zm.82.152.229-.444-.23.444Zm.47.521.466-.184-.465.184Zm.001 2.926-.465-.184.465.184Zm-.472.52.23.445-.23-.444Zm-.82.153-.05-.497-.015.001-.017.003.083.493Zm0 0 .05.498.017-.002.016-.003-.082-.493Zm-1.456.295-.303-.398.303.398Zm-.384.929-.496.066.496-.066Zm.821 1.238-.387.316.387-.316Zm.472.687-.477.152.477-.152Zm-.035.702-.459-.199.459.199Zm-.538.637.354.353-.354-.353Zm-.894.893-.353-.353.353.353Zm-.637.538.2.46-.2-.46Zm-.702.035-.152.477.152-.477Zm-.687-.472.317-.387-.005-.003-.312.39Zm0 0-.317.387.005.004.312-.39Zm-1.238-.82.066-.496-.066.495Zm-.929.384.398.303-.398-.303Zm-.295 1.456-.497-.05.497.05Zm-.152.82-.445-.229.445.23Zm-.521.472-.184-.465.184.465Zm-2.926 0 .184-.465-.184.465Zm-.52-.472.444-.229-.445.23Zm-.153-.82-.498.05.498-.05Zm-.295-1.456-.398.303.398-.303Zm-.928-.384-.067-.496.067.495Zm-1.239.82-.317-.386-.007.006-.008.007.332.374Zm0 0 .317.388.008-.007.007-.006-.332-.374Zm-.687.473.152.476-.152-.476Zm-.702-.035-.2.459.2-.46Zm-.637-.538.353-.354-.353.354Zm-.894-.894-.353.354.353-.354Zm-.538-.637.459-.198-.459.198Zm-.035-.702.476.152-.476-.152Zm.472-.687.387.317-.387-.317Zm.821-1.239.496.067-.496-.067Zm-.384-.928.303-.397-.303.397Zm-1.457-.295-.05.498.05-.498Zm-.82-.152.23-.445-.23.445Zm-.47-.521-.466.184.465-.184Zm0-2.926-.466-.184.465.184Zm.47-.52-.229-.445.23.444Zm.82-.153v-.5h-.024l-.025.002.05.498Zm0 0v.5h.025l.025-.003-.05-.497Zm1.457-.295-.303-.398.303.398Zm.385-.928.495-.067-.495.067ZM4.38 7.4l.387-.316-.387.317Zm-.472-.687.476-.152-.476.152Zm.035-.702-.459-.198.46.198Zm.538-.637.354.354-.354-.354Zm.894-.893-.354-.354.354.354Zm.637-.538-.199-.46.199.46Zm.702-.035.152-.477-.152.477Zm.687.472.317-.387-.317.387Zm1.238.821.067-.495-.067.495Zm.93-.385-.399-.303.398.303Zm.294-1.456.497.05-.497-.05Zm.152-.82-.444-.228.444.229Zm.521-.471.184.465-.184-.465Zm2.926 0 .184-.465-.184.465Zm1.17 1.242c-.02-.21-.038-.393-.063-.542a1.525 1.525 0 0 0-.142-.458l-.889.459c.01.02.027.06.044.164.019.11.033.253.056.476l.995-.1Zm.196 1.203c-.012-.015-.048-.076-.087-.29a13.27 13.27 0 0 1-.108-.913l-.995.1c.04.401.073.732.119.99.045.252.115.509.276.72l.795-.607Zm.464.192a.5.5 0 0 1-.464-.192l-.796.606a1.5 1.5 0 0 0 1.393.577l-.133-.991Zm.988-.713c-.325.267-.547.448-.722.569-.179.124-.248.141-.266.144l.133.991c.262-.035.493-.167.704-.314.215-.15.472-.36.785-.616l-.634-.774Zm.852-.561c-.16.051-.295.132-.423.223-.124.088-.265.204-.429.338l.634.774c.173-.142.285-.233.375-.297a.566.566 0 0 1 .148-.086l-.305-.952Zm1.053.052a1.5 1.5 0 0 0-1.053-.052l.305.952a.5.5 0 0 1 .35.018l.398-.918Zm.792.644c-.15-.15-.279-.28-.393-.38a1.524 1.524 0 0 0-.399-.264l-.398.918c.021.009.059.03.139.1.083.072.185.174.344.333l.707-.707Zm.893.893-.893-.893-.707.707.893.893.707-.707Zm.644.792a1.527 1.527 0 0 0-.265-.399c-.1-.114-.23-.243-.379-.393l-.707.707c.159.159.26.261.334.344.07.08.09.118.099.139l.918-.398Zm.052 1.053a1.5 1.5 0 0 0-.052-1.053l-.918.398a.5.5 0 0 1 .017.35l.953.305Zm-.561.852c.134-.164.25-.305.338-.429.09-.128.172-.263.223-.423l-.953-.305a.565.565 0 0 1-.085.148 8.04 8.04 0 0 1-.297.375l.774.634Zm-.713.988c.003-.018.02-.087.144-.266.121-.175.302-.397.569-.722l-.774-.634c-.256.313-.467.57-.616.785-.147.21-.279.442-.314.704l.991.133Zm.192.464a.5.5 0 0 1-.192-.464l-.991-.133a1.5 1.5 0 0 0 .577 1.392l.606-.795Zm1.203.195c-.419-.042-.703-.07-.913-.108-.214-.039-.275-.075-.29-.087l-.606.795c.21.16.467.23.72.276.257.046.588.08.99.12l.1-.996Zm1 .206a1.525 1.525 0 0 0-.458-.142c-.15-.025-.332-.043-.542-.064l-.1.995c.224.023.367.037.477.056a.568.568 0 0 1 .164.044l.459-.89Zm.707.781a1.5 1.5 0 0 0-.707-.781l-.459.889a.5.5 0 0 1 .236.26l.93-.368Zm.105 1.015c0-.211 0-.394-.01-.546a1.522 1.522 0 0 0-.095-.469l-.93.368c.008.021.02.063.027.168.008.11.008.255.008.48h1Zm0 1.264v-1.264h-1v1.264h1Zm-.105 1.014c.062-.156.085-.312.095-.469.01-.151.01-.334.01-.545h-1c0 .224 0 .368-.008.479a.567.567 0 0 1-.027.168l.93.367Zm-.707.782a1.5 1.5 0 0 0 .707-.782l-.93-.367a.5.5 0 0 1-.236.26l.459.89Zm-1 .206c.21-.021.393-.04.542-.065.155-.025.308-.064.457-.14l-.458-.89a.565.565 0 0 1-.164.044c-.11.019-.253.033-.476.056l.1.995Zm.033-.005-.165-.986.165.986Zm-1.235.2c.015-.012.076-.049.29-.087.21-.038.494-.067.912-.108l-.1-.995c-.401.04-.732.072-.99.119-.252.045-.508.115-.719.275l.607.796Zm-.193.464a.5.5 0 0 1 .193-.464l-.607-.796a1.5 1.5 0 0 0-.577 1.393l.991-.133Zm.713.988a13.366 13.366 0 0 1-.569-.722c-.124-.178-.141-.248-.144-.266l-.99.133c.035.262.167.493.313.704.15.214.36.472.616.784l.774-.633Zm.561.852a1.528 1.528 0 0 0-.223-.424c-.088-.123-.204-.265-.338-.428l-.774.633c.142.174.233.285.297.376a.567.567 0 0 1 .085.147l.953-.304Zm-.052 1.053a1.5 1.5 0 0 0 .052-1.053l-.953.304a.5.5 0 0 1-.017.351l.918.398Zm-.643.791c.149-.149.278-.278.378-.392.104-.119.198-.245.265-.4l-.918-.397a.566.566 0 0 1-.1.138 8.001 8.001 0 0 1-.333.344l.707.707Zm-.894.894.893-.894-.707-.707-.893.894.707.707Zm-.792.643c.154-.067.28-.16.399-.264.114-.1.243-.23.393-.38l-.707-.706c-.159.159-.261.26-.344.333a.568.568 0 0 1-.139.1l.398.917Zm-1.053.053a1.5 1.5 0 0 0 1.053-.053l-.398-.917a.5.5 0 0 1-.35.017l-.305.953Zm-.852-.562c.164.134.305.25.429.338.128.091.263.173.423.224l.305-.953a.565.565 0 0 1-.148-.085 8.028 8.028 0 0 1-.375-.298l-.634.774Zm.005.004.624-.781-.624.78Zm-.993-.716c.018.002.088.02.266.144.175.121.397.302.722.568l.634-.774c-.313-.255-.57-.466-.785-.616-.21-.146-.442-.278-.704-.313l-.133.99Zm-.464.192a.5.5 0 0 1 .464-.192l.133-.991a1.5 1.5 0 0 0-1.392.576l.795.607Zm-.195 1.203c.042-.419.07-.703.108-.913.039-.214.075-.275.087-.29l-.795-.607c-.16.21-.23.468-.276.72-.046.257-.08.588-.12.99l.996.1Zm-.206 1c.077-.15.115-.303.141-.458.026-.15.044-.332.065-.542l-.995-.1a7.989 7.989 0 0 1-.056.477.567.567 0 0 1-.044.164l.89.459Zm-.781.707a1.5 1.5 0 0 0 .781-.707l-.889-.459a.5.5 0 0 1-.26.236l.368.93Zm-1.015.105c.211 0 .394 0 .546-.01.156-.01.313-.033.469-.095l-.368-.93a.567.567 0 0 1-.168.027c-.11.008-.255.008-.48.008v1Zm-1.264 0h1.264v-1h-1.264v1Zm-1.015-.105c.157.062.313.085.47.095.151.01.334.01.545.01v-1c-.224 0-.368 0-.479-.008a.568.568 0 0 1-.168-.027l-.368.93Zm-.781-.707a1.5 1.5 0 0 0 .781.707l.368-.93a.5.5 0 0 1-.26-.236l-.89.459Zm-.206-1c.021.21.04.393.064.542.026.155.065.308.142.458l.889-.459a.568.568 0 0 1-.044-.164 7.977 7.977 0 0 1-.056-.476l-.995.1Zm-.195-1.203c.012.015.048.076.087.29.038.21.066.495.108.913l.995-.1c-.04-.401-.073-.732-.119-.99-.045-.252-.115-.509-.276-.72l-.795.607Zm-.464-.192a.5.5 0 0 1 .464.192l.795-.606a1.5 1.5 0 0 0-1.392-.577l.133.991Zm-.988.713c.325-.267.547-.448.722-.569.179-.124.248-.142.266-.144l-.133-.991c-.262.035-.493.167-.704.314-.215.149-.472.36-.785.616l.634.774Zm.015-.013-.664-.748.664.748Zm-.867.574c.16-.051.295-.132.423-.223.124-.088.265-.204.429-.338l-.634-.774a8.046 8.046 0 0 1-.375.297.563.563 0 0 1-.148.085l.305.953Zm-1.053-.052a1.5 1.5 0 0 0 1.053.052l-.305-.953a.5.5 0 0 1-.35-.017l-.398.918Zm-.792-.644c.15.15.279.28.393.38.118.103.245.197.399.264l.398-.918a.565.565 0 0 1-.139-.1 8.08 8.08 0 0 1-.344-.333l-.707.707Zm-.893-.893.893.893.707-.707-.893-.893-.707.707Zm-.644-.792c.067.154.161.28.265.399.1.114.23.243.379.393l.707-.707a8.072 8.072 0 0 1-.334-.344.567.567 0 0 1-.1-.139l-.917.398Zm-.052-1.053a1.5 1.5 0 0 0 .052 1.053l.918-.398a.5.5 0 0 1-.018-.35l-.952-.305Zm.561-.852c-.134.164-.25.305-.338.429a1.528 1.528 0 0 0-.223.423l.952.305a.566.566 0 0 1 .086-.148c.064-.09.155-.202.297-.375l-.774-.634Zm.713-.988c-.003.018-.02.087-.144.266-.122.175-.302.397-.569.722l.774.634c.256-.313.467-.57.616-.785.147-.21.279-.442.314-.704l-.991-.133Zm-.192-.464a.5.5 0 0 1 .192.464l.991.133a1.5 1.5 0 0 0-.577-1.393l-.606.796Zm-1.203-.195c.419.041.703.07.913.108.214.039.275.075.29.087l.606-.796c-.21-.16-.467-.23-.72-.275-.257-.046-.588-.08-.99-.12l-.1.996Zm-1-.206c.15.077.303.115.458.141.15.026.331.044.542.065l.1-.995a7.973 7.973 0 0 1-.477-.056.568.568 0 0 1-.164-.044l-.459.89Zm-.707-.782a1.5 1.5 0 0 0 .707.782l.459-.889a.5.5 0 0 1-.236-.26l-.93.367ZM1.5 12.633c0 .211 0 .394.01.546.01.156.033.312.095.468l.93-.367a.568.568 0 0 1-.027-.168 8.061 8.061 0 0 1-.008-.48h-1Zm0-1.264v1.264h1v-1.264h-1Zm.105-1.015a1.526 1.526 0 0 0-.095.47c-.01.151-.01.334-.01.545h1c0-.224 0-.368.008-.479a.566.566 0 0 1 .027-.168l-.93-.368Zm.707-.781a1.5 1.5 0 0 0-.707.781l.93.368a.5.5 0 0 1 .236-.26l-.459-.89Zm1-.206c-.21.021-.393.04-.542.064a1.525 1.525 0 0 0-.458.142l.459.889c.02-.01.06-.027.164-.044.11-.019.253-.033.476-.056l-.1-.995Zm.05-.002v1-1Zm0 0v1-1Zm1.153-.193c-.015.012-.076.048-.29.087-.21.038-.494.066-.913.108l.1.995c.401-.04.733-.073.99-.119.253-.045.51-.115.72-.276l-.607-.795Zm.192-.464a.5.5 0 0 1-.192.464l.607.795a1.5 1.5 0 0 0 .576-1.392l-.99.133Zm-.713-.989c.267.326.448.548.57.723.124.179.14.248.143.266l.991-.133c-.035-.262-.167-.493-.314-.704-.149-.215-.36-.472-.616-.785l-.774.633Zm-.561-.852c.05.16.132.296.223.424.088.123.204.265.338.428l.774-.633a8.054 8.054 0 0 1-.297-.376.566.566 0 0 1-.086-.147l-.952.304Zm.052-1.052a1.5 1.5 0 0 0-.052 1.052l.952-.304a.5.5 0 0 1 .018-.35l-.918-.398Zm.644-.792c-.15.149-.28.278-.38.393a1.525 1.525 0 0 0-.264.399l.918.397a.566.566 0 0 1 .1-.138c.072-.083.174-.186.333-.344l-.707-.707Zm.893-.894-.893.894.707.707.893-.894-.707-.707Zm0 0 .707.707-.707-.707Zm.792-.643c-.154.067-.28.16-.399.264-.114.1-.244.23-.393.38l.707.706c.159-.158.261-.26.344-.333.08-.07.118-.09.139-.1l-.398-.917Zm1.053-.053a1.5 1.5 0 0 0-1.053.053l.398.918a.5.5 0 0 1 .35-.018l.305-.953Zm.852.562c-.164-.134-.305-.25-.429-.338a1.525 1.525 0 0 0-.423-.224l-.305.953a.566.566 0 0 1 .148.085c.09.065.202.156.376.298l.633-.774Zm.988.713c-.018-.003-.087-.02-.266-.144a13.335 13.335 0 0 1-.722-.57l-.633.775c.312.256.57.467.784.616.21.146.442.278.704.314l.133-.991Zm.464-.193a.5.5 0 0 1-.464.193l-.133.99a1.5 1.5 0 0 0 1.393-.576l-.796-.607Zm.195-1.202c-.042.418-.07.703-.108.912-.039.214-.075.275-.087.29l.796.607c.16-.21.23-.467.275-.72.046-.257.08-.588.12-.99l-.996-.1Zm.206-1c-.077.15-.116.303-.142.458-.025.15-.043.331-.064.542l.995.1a7.97 7.97 0 0 1 .056-.477.564.564 0 0 1 .044-.164l-.89-.458Zm.782-.707a1.5 1.5 0 0 0-.782.708l.889.458a.5.5 0 0 1 .26-.236l-.367-.93Zm1.014-.105c-.211 0-.394 0-.546.01-.156.01-.312.033-.468.095l.367.93a.566.566 0 0 1 .168-.027c.11-.008.255-.008.48-.008v-1Zm1.264 0h-1.264v1h1.264v-1Zm1.014.105a1.525 1.525 0 0 0-.468-.095c-.152-.01-.335-.01-.546-.01v1c.224 0 .368 0 .479.008.105.007.147.019.168.027l.367-.93Zm.782.707a1.5 1.5 0 0 0-.782-.707l-.367.93a.5.5 0 0 1 .26.236l.89-.459ZM15.5 12a3.5 3.5 0 0 1-3.5 3.5v1a4.5 4.5 0 0 0 4.5-4.5h-1ZM12 8.5a3.5 3.5 0 0 1 3.5 3.5h1A4.5 4.5 0 0 0 12 7.5v1ZM8.5 12A3.5 3.5 0 0 1 12 8.5v-1A4.5 4.5 0 0 0 7.5 12h1Zm3.5 3.5A3.5 3.5 0 0 1 8.5 12h-1a4.5 4.5 0 0 0 4.5 4.5v-1Z"

  />
</symbol>

    </svg>